<svg version="1.1" id="Layer_1" xmlns="http://www.w3.org/2000/svg" xmlns:xlink="http://www.w3.org/1999/xlink" x="0px" y="0px"
	 width="100%" viewBox="0 0 1024 1024" enable-background="new 0 0 1024 1024" xml:space="preserve">
<path fill="#000000" opacity="1.000000" stroke="none" 
	d="
M775.178162,601.729370 
	C787.832947,607.789612 800.174927,613.634583 812.416260,619.683533 
	C814.402832,620.665100 818.349976,620.920410 817.267639,624.220581 
	C816.021057,628.021606 815.577759,633.094055 809.773621,633.595581 
	C799.987976,634.441101 790.210510,635.381104 780.430481,636.290833 
	C778.311462,636.487915 776.098022,636.293823 773.668335,638.030945 
	C777.431946,643.857239 781.159851,649.693420 784.956848,655.484192 
	C787.696472,659.662537 790.499939,663.799988 793.331970,667.916382 
	C794.531067,669.659363 795.062866,671.221008 794.114746,673.432190 
	C790.526306,681.801575 790.646790,681.775146 782.352356,677.770386 
	C769.155579,671.398682 756.026306,664.865845 742.633667,658.931091 
	C737.137817,656.495667 738.798523,653.729858 740.467651,649.977722 
	C742.189758,646.106384 743.659668,643.828369 748.511230,646.453735 
	C755.942322,650.474976 763.767456,653.768005 772.769348,658.002258 
	C767.517456,649.967834 762.999512,643.111389 758.540161,636.216980 
	C754.842590,630.500427 756.556335,626.759644 763.434448,625.955505 
	C771.482422,625.014709 779.563599,624.358276 787.792603,622.695007 
	C780.452271,619.251526 773.211243,615.570007 765.735291,612.451660 
	C761.066772,610.504333 759.909241,608.135681 762.807556,603.870544 
	C764.005432,602.107849 764.408813,599.841858 766.469604,598.045837 
	C769.392334,598.471619 771.987000,600.366516 775.178162,601.729370 
z"/>
<path fill="#000000" opacity="1.000000" stroke="none" 
	d="
M499.147705,777.826904 
	C504.877075,777.907654 505.702148,780.803040 504.948730,785.448120 
	C502.555359,800.204773 500.520844,815.019592 498.128571,829.776428 
	C497.757294,832.066833 498.549530,836.080505 494.719604,835.891479 
	C490.878082,835.701904 486.146332,836.573914 484.057404,831.408325 
	C480.127533,821.690186 476.046722,812.032654 471.981171,802.369934 
	C471.356354,800.885010 471.130768,799.130493 469.085052,797.756592 
	C462.312042,806.101501 455.261078,814.250244 448.864929,822.884033 
	C445.370544,827.600769 441.706970,829.087769 436.130096,827.422119 
	C433.440216,826.618774 432.489716,825.406067 432.879669,822.880371 
	C435.437866,806.311279 438.096466,789.757202 440.532257,773.170227 
	C441.009369,769.921265 442.652313,769.409973 445.323547,769.879761 
	C445.487518,769.908630 445.649811,769.947510 445.814240,769.972900 
	C454.372772,771.294861 454.346954,771.290833 453.014099,779.987366 
	C451.908356,787.202026 450.872742,794.427429 450.684143,802.140137 
	C454.953308,796.973755 459.224854,791.809326 463.489990,786.639648 
	C464.548645,785.356506 465.535431,784.010498 466.643463,782.772278 
	C470.785889,778.143005 474.821594,778.674988 477.309937,784.296814 
	C480.536591,791.586670 483.601532,798.948059 487.684509,806.304932 
	C488.972137,798.600952 490.724335,790.936646 491.388123,783.179321 
	C491.849701,777.784729 494.080719,776.597778 499.147705,777.826904 
z"/>
<path fill="#000000" opacity="1.000000" stroke="none" 
	d="
M281.396637,633.789856 
	C290.365875,632.855713 296.537994,636.826660 301.475586,643.307800 
	C305.991364,649.235229 309.060028,655.834167 310.194824,663.213989 
	C310.630554,666.047546 310.852448,669.217346 306.475647,669.193359 
	C303.081299,669.174805 298.851471,670.876404 298.706268,664.680908 
	C298.586121,659.553467 296.352661,654.991028 293.025879,651.103271 
	C289.289154,646.736328 285.258759,646.131836 279.857666,649.157715 
	C291.617920,658.076782 297.453888,668.840942 289.051514,682.887695 
	C284.334656,690.773132 274.216400,694.063477 265.398193,691.476868 
	C255.572418,688.594727 249.005173,679.492676 248.823273,668.504272 
	C245.473511,668.416504 239.321426,661.988586 239.579422,658.874512 
	C239.675079,657.719666 240.476379,657.147522 241.320786,656.615906 
	C252.163483,649.789978 262.963928,642.894470 273.901886,636.224487 
	C275.971375,634.962646 278.592957,634.606262 281.396637,633.789856 
M279.015015,673.181763 
	C280.075775,670.997253 280.208771,668.665222 279.671539,666.383484 
	C278.616516,661.902771 276.150909,658.467346 271.460693,657.345642 
	C267.214233,656.330078 263.484894,657.567749 260.922272,661.165405 
	C258.242676,664.927246 258.520325,669.007629 260.716095,672.881104 
	C264.912567,680.283997 272.449860,680.647339 279.015015,673.181763 
z"/>
<path fill="#000000" opacity="1.000000" stroke="none" 
	d="
M739.925293,327.927856 
	C734.805481,332.714111 730.005859,337.328094 725.055847,341.774689 
	C715.649048,350.224854 705.625732,350.481110 695.759766,342.564301 
	C689.658142,337.668091 685.175110,331.544250 682.511841,324.169006 
	C681.528687,321.446411 680.490906,318.532379 684.788513,317.515839 
	C688.167664,316.716614 691.804016,314.364746 693.231140,320.295715 
	C694.428345,325.271454 697.569946,329.244110 701.500488,332.498840 
	C706.167480,336.363525 709.860657,336.224579 715.214661,331.771820 
	C701.510986,325.901337 694.342957,316.323395 699.017334,301.203430 
	C701.602051,292.842712 711.296936,286.670258 719.500305,287.043335 
	C729.665100,287.505554 738.068542,294.869873 741.572754,306.386475 
	C744.776611,306.211243 752.143616,311.632355 752.605225,314.476257 
	C752.873474,316.128387 751.578735,316.803925 750.653015,317.693085 
	C747.173645,321.035004 743.671326,324.353088 739.925293,327.927856 
M718.910950,301.151825 
	C713.313538,302.890259 709.853027,307.304199 710.519653,311.855133 
	C711.283020,317.066437 716.209351,321.643433 721.361877,321.928650 
	C726.312073,322.202606 730.464478,319.403046 731.614990,315.015991 
	C733.015930,309.673889 730.341431,304.388672 725.060669,301.930023 
	C723.339905,301.128876 721.552246,301.020874 718.910950,301.151825 
z"/>
<path fill="#000000" opacity="1.000000" stroke="none" 
	d="
M722.964844,710.955688 
	C736.740234,722.637756 738.641907,740.358093 727.830505,753.824097 
	C716.275452,768.216187 696.905945,771.485291 683.933167,761.232849 
	C670.533752,750.643433 667.997192,732.808716 677.997742,719.501587 
	C689.738464,703.878906 707.862366,700.323181 722.964844,710.955688 
M709.807800,752.555908 
	C711.112976,751.834351 712.497986,751.226196 713.710327,750.372803 
	C721.186768,745.109741 723.164795,735.323547 718.414795,727.375610 
	C713.518677,719.183228 703.793274,716.145203 695.609680,720.251892 
	C687.419312,724.361938 683.825073,733.356384 687.037781,741.702942 
	C690.634583,751.047485 699.386292,755.465515 709.807800,752.555908 
z"/>
<path fill="#000000" opacity="1.000000" stroke="none" 
	d="
M396.210785,242.810120 
	C398.514954,245.631882 400.597229,248.178131 403.668579,251.933884 
	C403.668579,242.588745 404.081909,234.663437 403.529694,226.806000 
	C403.132172,221.149231 406.919342,220.528198 410.528412,218.891525 
	C414.248871,217.204330 415.899231,219.290970 417.889435,221.804977 
	C422.586670,227.738617 427.505585,233.496765 432.334839,239.325897 
	C432.784149,239.189224 433.233429,239.052551 433.682709,238.915894 
	C433.682709,232.180817 433.681854,225.445755 433.682953,218.710678 
	C433.684387,210.130493 435.411743,208.367416 444.344574,207.825897 
	C445.449799,208.655289 445.284576,209.893311 445.284912,211.021301 
	C445.289001,224.007797 445.099365,236.996994 445.314514,249.979630 
	C445.418488,256.255524 440.090240,255.361343 436.821899,257.253784 
	C433.897339,258.947174 431.954559,257.750580 430.042816,255.346863 
	C425.624634,249.791672 421.011566,244.391464 416.477570,238.928391 
	C415.971344,239.058990 415.465118,239.189575 414.958893,239.320175 
	C414.958893,245.711044 415.017120,252.102615 414.942047,258.492615 
	C414.871124,264.529816 409.203400,269.542084 403.309418,268.955780 
	C402.003479,268.825836 401.213959,268.007202 400.474915,267.110413 
	C391.794159,256.577240 383.119995,246.038544 374.475677,235.475479 
	C373.976440,234.865463 373.749481,234.032669 373.416382,233.346024 
	C380.481598,227.425430 383.962524,227.671799 389.412842,234.366119 
	C391.619812,237.076767 393.797760,239.811050 396.210785,242.810120 
z"/>
<path fill="#000000" opacity="1.000000" stroke="none" 
	d="
M328.069397,762.874512 
	C330.913300,764.899231 333.473450,766.708008 336.117493,768.575989 
	C339.085541,766.161499 340.566071,763.196045 342.718964,760.127380 
	C337.516937,755.220154 331.646820,751.462830 325.944641,747.569702 
	C322.553650,745.254517 321.994354,743.416077 324.494659,740.013794 
	C326.930481,736.699097 328.865967,735.000305 332.730652,738.237122 
	C336.675232,741.540894 341.248383,744.090149 345.226593,747.358826 
	C348.904480,750.380798 351.367401,749.721741 353.395081,745.739197 
	C354.211945,744.134888 355.868713,742.984619 356.030457,740.291016 
	C349.627411,735.645874 343.129547,730.475281 336.164062,726.038879 
	C331.499420,723.067932 333.001465,720.736206 335.281921,717.266724 
	C337.677094,713.622681 339.716003,713.797058 342.887238,716.151978 
	C352.242645,723.098999 361.702057,729.910645 371.245728,736.596863 
	C374.342804,738.766602 374.884125,740.411926 372.415131,743.721497 
	C362.959961,756.395752 353.855560,769.331543 344.590698,782.148315 
	C343.632324,783.474060 342.942444,785.073730 341.003296,785.996338 
	C336.690369,784.233032 333.158783,780.858826 329.226593,778.171204 
	C322.219330,773.381836 315.465485,768.223389 308.527008,763.330811 
	C306.069061,761.597717 305.480011,759.696777 307.785522,757.696228 
	C309.880310,755.878357 310.216095,750.394043 315.105133,753.784668 
	C319.344391,756.724731 323.559753,759.699341 328.069397,762.874512 
z"/>
<path fill="#000000" opacity="1.000000" stroke="none" 
	d="
M620.555542,269.490967 
	C615.817871,267.336548 611.458435,265.268799 607.040405,263.334686 
	C604.506897,262.225525 604.048279,260.745087 605.214233,258.216339 
	C612.178467,243.111893 619.083923,227.979660 625.881531,212.799606 
	C627.307617,209.615021 628.994507,209.151718 632.087708,210.620087 
	C642.454529,215.541443 652.842773,220.438721 663.400024,224.928635 
	C668.440979,227.072495 666.770203,229.760513 665.356628,233.198090 
	C663.873657,236.804459 662.179565,237.546722 658.562317,235.762833 
	C651.290405,232.176605 643.790955,229.051865 636.726318,225.889313 
	C636.055908,226.250641 635.857849,226.291122 635.776062,226.410995 
	C630.315308,234.410919 630.518677,235.217819 639.156799,239.279266 
	C643.372009,241.261154 647.588074,243.245163 651.851807,245.118805 
	C656.591980,247.201797 653.350037,249.999420 652.545471,252.506775 
	C651.707153,255.119614 650.478638,257.009491 647.109314,255.389633 
	C641.715454,252.796387 636.077332,250.693909 630.768860,247.946503 
	C627.346863,246.175491 625.598083,246.919083 624.384399,250.338531 
	C623.666992,252.359726 622.699707,254.292236 621.781006,256.411652 
	C624.034119,259.086060 627.289490,259.604401 630.061096,260.922455 
	C635.468933,263.494263 641.000427,265.810089 646.372192,268.452698 
	C651.541016,270.995483 647.126465,274.063232 646.509277,276.819153 
	C645.868347,279.681305 644.122009,280.389618 641.301086,279.032318 
	C634.557556,275.787659 627.712952,272.753052 620.555542,269.490967 
z"/>
<path fill="#000000" opacity="1.000000" stroke="none" 
	d="
M644.977539,723.861694 
	C649.139587,720.860718 651.258728,722.252808 653.298340,726.206604 
	C660.545227,740.253906 668.138977,754.121948 675.486755,768.118042 
	C676.582520,770.205200 679.348938,772.564575 677.530579,774.799927 
	C675.267578,777.581909 671.495911,780.206116 668.167725,779.742065 
	C665.051575,779.307495 664.119385,780.630798 662.650818,782.212769 
	C655.266235,790.167847 645.242310,792.656677 636.410400,788.710449 
	C627.860046,784.889954 621.642639,773.862732 622.550659,764.128723 
	C623.554565,753.366821 632.166931,745.062195 642.970825,744.456360 
	C643.938538,744.402100 644.911926,744.449158 646.290466,744.449158 
	C645.658325,740.252625 643.320679,737.201965 641.684814,733.897705 
	C638.444214,727.351868 638.364868,727.391174 644.977539,723.861694 
M655.616272,760.000793 
	C652.434631,755.559326 648.168396,753.960022 642.996033,755.693237 
	C638.687622,757.136963 636.114563,760.147156 636.111267,764.967285 
	C636.107727,770.063171 639.243408,775.142151 643.609192,776.910217 
	C647.968079,778.675537 651.779297,777.549927 655.022827,774.427124 
	C658.514343,771.065552 658.757690,766.516357 655.616272,760.000793 
z"/>
<path fill="#000000" opacity="1.000000" stroke="none" 
	d="
M244.060440,355.872498 
	C239.727051,350.543304 238.729538,344.936707 240.593460,338.714935 
	C243.434906,329.230255 249.172699,322.014740 257.185303,316.299377 
	C262.465454,312.533020 263.496582,317.104156 265.759064,319.942657 
	C268.356903,323.201935 266.937225,324.718719 263.862427,326.355408 
	C259.342407,328.761505 256.048950,332.522644 253.720306,337.090179 
	C252.213089,340.046539 251.080612,343.244232 254.097290,345.748108 
	C257.081421,348.224976 259.748077,346.075012 262.092682,344.156952 
	C266.086182,340.889893 269.832672,337.305511 273.947449,334.205597 
	C281.171082,328.763550 287.124878,328.570374 293.649323,333.139832 
	C299.278534,337.082367 301.764771,344.349091 299.574310,351.860413 
	C296.352203,362.909271 289.361694,371.131409 279.664062,377.157318 
	C276.760925,378.961243 274.330872,378.881439 272.736115,375.452057 
	C271.775818,373.387024 269.878693,371.755280 269.756439,368.868835 
	C275.270477,365.972260 280.435669,362.440002 284.197449,357.168457 
	C287.835358,352.070557 288.900513,347.324097 286.141968,345.475983 
	C281.540466,342.393158 278.867340,346.572357 275.883392,348.918182 
	C272.613281,351.489075 269.641449,354.446503 266.320923,356.944763 
	C258.285034,362.990692 251.962906,362.687012 244.060440,355.872498 
z"/>
<path fill="#000000" opacity="1.000000" stroke="none" 
	d="
M220.242615,514.160461 
	C201.581787,509.533630 197.684021,486.078583 209.484131,473.864044 
	C214.489075,468.683380 220.785065,467.222443 227.747803,467.674103 
	C230.994797,467.884735 231.422089,469.932159 231.252457,472.511261 
	C230.728760,480.474121 230.212418,488.437500 229.671692,496.399200 
	C229.594208,497.539917 229.116409,498.682098 230.171265,500.453766 
	C234.798965,499.183960 236.824341,495.653961 237.545975,491.314789 
	C238.119995,487.863281 237.827225,484.393097 236.020020,481.144318 
	C233.216232,476.103851 238.492661,475.473053 240.692413,473.499542 
	C243.361786,471.104797 244.982574,473.819000 245.995224,475.809967 
	C251.019867,485.688843 250.476685,495.576385 244.536148,504.743439 
	C238.985489,513.308899 230.596024,516.076233 220.242615,514.160461 
M216.336212,498.111633 
	C217.977020,499.190308 219.925232,501.069366 220.700241,497.512756 
	C221.858734,492.196228 222.109207,486.795593 221.472473,481.326263 
	C213.654083,482.807465 211.348663,489.862274 216.336212,498.111633 
z"/>
<path fill="#000000" opacity="1.000000" stroke="none" 
	d="
M212.596207,560.528809 
	C204.303131,553.380249 202.153641,544.468750 204.354416,534.569336 
	C206.307236,525.785278 212.427628,520.709351 221.014526,518.511353 
	C226.920593,516.999573 228.461395,518.061829 229.093918,524.167542 
	C229.976685,532.688721 230.792831,541.216797 231.655197,549.920837 
	C238.670914,546.727478 240.210770,537.928406 235.303940,530.592468 
	C233.862564,528.437622 233.006516,526.927368 235.006378,524.529480 
	C239.497437,519.144531 241.449142,519.121033 245.381973,524.983215 
	C255.974472,540.772034 247.413986,562.229248 229.369339,564.960327 
	C223.346146,565.871948 217.843399,564.260010 212.596207,560.528809 
M221.057144,533.071655 
	C216.901932,533.120300 214.512558,535.784668 214.245819,540.666809 
	C213.930634,546.435486 217.078186,550.485352 222.411423,550.936096 
	C223.523575,545.107361 221.573776,539.445129 221.057144,533.071655 
z"/>
<path fill="#000000" opacity="1.000000" stroke="none" 
	d="
M678.561890,267.257568 
	C674.702332,268.257904 672.691162,270.911072 670.747437,273.643738 
	C667.566162,278.116150 664.288208,282.523926 661.240906,287.085754 
	C659.537598,289.635742 657.962524,289.759949 655.530334,288.018982 
	C645.788940,281.046021 647.322449,282.952667 653.013428,274.764984 
	C658.803894,266.434204 664.884583,258.300751 670.514465,249.864883 
	C672.889343,246.306381 675.034241,246.040054 678.079529,248.665573 
	C680.592834,250.832367 684.573120,251.779495 683.935120,256.325531 
	C689.251648,257.441162 694.137695,258.861145 698.157227,262.442871 
	C705.003662,268.543640 706.857788,276.623810 702.108826,284.423706 
	C697.534241,291.937195 692.138428,298.948730 687.159302,306.219086 
	C685.837341,308.149353 684.363708,308.347382 682.528687,307.089417 
	C682.391541,306.995422 682.243408,306.917145 682.107788,306.821198 
	C672.298584,299.882294 673.450378,301.539490 679.129395,293.594910 
	C681.837097,289.807068 684.511475,285.994049 687.128601,282.143280 
	C689.349121,278.876038 691.157837,275.318726 688.884460,271.479248 
	C686.722229,267.827179 683.075317,266.742798 678.561890,267.257568 
z"/>
<path fill="#000000" opacity="1.000000" stroke="none" 
	d="
M298.103088,332.302979 
	C286.267426,325.740051 281.463165,315.743408 284.676117,304.993164 
	C288.280548,292.933014 299.544464,284.880615 311.685974,285.684113 
	C324.597137,286.538574 334.562775,300.582367 331.693207,313.226624 
	C328.839691,325.800140 313.306122,338.819580 298.103088,332.302979 
M316.834015,303.759735 
	C313.558716,300.155365 309.868347,297.421814 304.640961,298.893036 
	C298.575439,300.600098 295.330383,306.936218 297.465668,312.581421 
	C299.886322,318.980988 306.958618,322.451904 312.754120,320.084534 
	C319.090973,317.496094 320.829987,311.449463 316.834015,303.759735 
z"/>
<path fill="#000000" opacity="1.000000" stroke="none" 
	d="
M774.713562,407.536102 
	C786.549255,401.121674 797.527588,402.698944 805.248596,411.680725 
	C812.742432,420.398224 813.354126,432.768768 806.762939,441.663818 
	C803.873718,445.562958 799.867737,447.776459 795.472351,449.534698 
	C792.249146,450.824097 790.542114,449.888367 789.566650,446.581787 
	C787.403748,439.250641 785.034119,431.980530 782.752625,424.684326 
	C782.266724,423.130280 782.119324,421.432892 780.636597,419.933380 
	C776.869202,422.226868 776.118530,425.828247 776.604248,429.680634 
	C777.111206,433.700745 778.595032,437.482330 781.861023,440.138428 
	C783.786194,441.704041 783.925354,443.088898 782.798523,445.249451 
	C779.441162,451.686798 777.175415,452.052490 772.374512,446.636230 
	C761.459961,434.322845 762.368713,416.851379 774.713562,407.536102 
M797.703613,433.601471 
	C800.920898,429.393158 800.709595,424.929291 798.153442,420.653137 
	C796.402283,417.723572 793.681335,415.997986 789.411316,416.922119 
	C791.119995,422.556396 792.725464,427.887634 794.357849,433.210571 
	C794.873169,434.891144 795.819702,435.337585 797.703613,433.601471 
z"/>
<path fill="#000000" opacity="1.000000" stroke="none" 
	d="
M305.130493,719.404419 
	C311.164856,716.778076 314.598114,711.594116 319.221252,707.837891 
	C321.651306,705.863525 323.465546,703.153992 326.504303,701.638184 
	C329.556763,703.490967 331.612061,706.358215 334.037323,708.816650 
	C335.519104,710.318665 335.182434,711.745117 333.728516,713.120117 
	C324.294220,722.042358 314.881439,730.987305 305.445923,739.908203 
	C304.574097,740.732483 303.634064,741.228516 302.305298,740.608093 
	C299.327301,739.217529 295.297668,732.731018 295.559265,729.245178 
	C289.918396,727.529114 285.017883,724.610168 281.707733,719.419128 
	C277.327087,712.549377 277.366882,704.620850 282.843597,698.621765 
	C288.781464,692.117493 295.358032,686.196777 301.645721,680.011108 
	C303.423096,678.262573 304.958710,678.494080 306.832520,680.093018 
	C314.241516,686.414856 314.303314,686.806702 307.429565,693.528625 
	C303.977448,696.904541 300.514984,700.269897 297.082184,703.665283 
	C294.151367,706.564148 291.298492,709.738647 293.566010,714.135681 
	C295.830780,718.527466 299.615295,720.673584 305.130493,719.404419 
z"/>
<path fill="#000000" opacity="1.000000" stroke="none" 
	d="
M554.974548,205.596863 
	C572.108459,202.375229 585.353943,213.367477 584.290100,229.522202 
	C583.930176,234.987595 582.783386,235.906555 577.402100,235.015518 
	C568.902588,233.608154 560.404236,232.193481 551.801758,230.764694 
	C551.962952,237.633453 560.055298,242.705124 566.959534,239.887604 
	C572.473511,237.637436 574.703674,239.683121 576.958984,244.069016 
	C578.189270,246.461548 577.789551,247.849960 575.579712,248.873901 
	C566.023621,253.301651 556.697327,252.234116 547.890747,247.008011 
	C540.008728,242.330612 536.350708,235.022263 537.361023,225.925644 
	C538.520081,215.488724 544.097961,208.398117 554.974548,205.596863 
M566.595398,224.610764 
	C568.146545,224.522568 569.882141,225.479401 571.163879,223.860641 
	C570.224426,218.931671 567.068115,215.794876 562.245605,215.699875 
	C558.012268,215.616455 554.220825,216.838058 552.564026,221.787720 
	C556.992126,223.634689 561.526855,223.426819 566.595398,224.610764 
z"/>
<path fill="#000000" opacity="1.000000" stroke="none" 
	d="
M789.392578,470.505829 
	C785.541443,476.732849 785.926880,482.743866 790.129272,487.963531 
	C794.053833,492.838074 789.195190,494.437256 787.324097,496.821899 
	C784.826172,500.005463 782.940125,496.913574 781.395691,495.225739 
	C774.323792,487.497192 773.500366,472.041931 779.548096,462.941895 
	C785.343018,454.222290 796.263123,450.731415 806.375854,454.365662 
	C816.775879,458.103210 822.429993,468.153778 821.298584,480.892059 
	C820.448486,490.462799 812.661499,498.328094 802.405029,500.057861 
	C799.107910,500.613953 797.020569,500.028198 796.611145,496.061890 
	C795.676636,487.007263 794.419189,477.986023 793.319092,469.161041 
	C791.340698,468.047272 790.585327,469.419556 789.392578,470.505829 
M802.310364,472.746582 
	C802.838135,477.025665 802.713379,481.454010 804.668762,485.636353 
	C810.354309,483.714783 811.301880,479.693054 810.670776,475.130035 
	C810.019409,470.420898 807.362732,467.408173 802.378601,466.872681 
	C801.349915,468.722046 802.413330,470.334747 802.310364,472.746582 
z"/>
<path fill="#000000" opacity="1.000000" stroke="none" 
	d="
M251.823029,612.937378 
	C243.441101,615.364197 235.341232,617.375854 227.484833,620.091858 
	C222.872864,621.686096 221.049866,620.201355 220.180542,615.943726 
	C219.583755,613.020691 217.334076,610.049316 221.120392,607.451172 
	C216.301636,602.516541 212.780853,597.194641 212.665909,590.236145 
	C212.536255,582.387573 216.144577,576.409119 223.785690,573.624451 
	C231.904343,570.665710 240.270264,568.383728 248.535767,565.830688 
	C250.564194,565.204224 251.835037,565.700439 252.776138,567.918823 
	C256.814880,577.438660 256.573944,578.038635 246.779419,580.789612 
	C241.974808,582.139160 237.153702,583.474548 232.451294,585.131958 
	C226.786316,587.128601 224.947754,590.681091 226.413239,595.945862 
	C227.798416,600.922119 232.228821,603.714417 237.708542,602.394287 
	C243.846527,600.915466 249.914581,599.062683 255.884903,597.001465 
	C259.804321,595.648254 261.910248,596.540039 262.625977,600.656738 
	C262.823914,601.795349 263.156982,602.946899 263.643250,603.992493 
	C265.516388,608.019836 263.788361,609.804199 259.882294,610.614014 
	C257.283356,611.152832 254.762924,612.070129 251.823029,612.937378 
z"/>
<path fill="#000000" opacity="1.000000" stroke="none" 
	d="
M458.075073,244.774078 
	C452.611725,234.860397 455.993195,226.796219 466.817841,223.848633 
	C471.558746,222.557663 476.505188,222.021576 481.342133,221.145630 
	C480.114655,213.334229 473.657623,213.031906 459.926483,219.747437 
	C459.619049,219.642746 459.200348,219.626709 459.023438,219.411728 
	C452.641846,211.656830 453.063782,210.062927 462.395447,206.270218 
	C468.719177,203.700027 475.318878,202.811600 481.976044,204.010056 
	C490.458130,205.537033 494.690948,211.473419 495.999573,219.547546 
	C497.247009,227.244644 498.068787,235.010925 499.063690,242.748581 
	C499.214478,243.921173 499.215698,245.038483 498.110321,245.891830 
	C495.621674,247.813095 487.770752,247.508545 485.129608,245.337830 
	C475.009583,252.075211 465.642578,251.984528 458.075073,244.774078 
M472.968079,239.821701 
	C476.205933,240.184250 479.275848,239.836014 481.681061,237.367950 
	C483.240997,235.767258 484.394989,233.811142 483.363617,231.569260 
	C482.373199,229.416443 480.193268,230.254837 478.493683,230.355774 
	C476.697296,230.462463 474.905548,230.882172 473.145691,231.306061 
	C471.105560,231.797470 469.423126,232.838547 469.178711,235.157990 
	C468.940277,237.420517 469.975403,238.958099 472.968079,239.821701 
z"/>
<path fill="#000000" opacity="1.000000" stroke="none" 
	d="
M756.063110,374.128265 
	C754.247620,375.051666 752.759949,375.798828 751.278870,376.558899 
	C742.768799,380.926208 742.837036,380.897675 738.914307,371.923492 
	C737.853821,369.497467 737.989258,367.955292 740.499146,366.659485 
	C751.590881,360.933167 762.647400,355.138153 773.683350,349.304932 
	C775.858276,348.155304 777.645203,348.194702 778.506531,350.671295 
	C779.732117,354.195251 784.032715,357.019714 780.837158,361.391174 
	C783.580750,364.010254 786.535522,365.910797 788.552795,368.865570 
	C795.592957,379.177856 793.504761,389.868561 782.755737,396.158936 
	C776.010925,400.106018 768.920898,403.458923 762.064880,407.222565 
	C759.344299,408.716034 757.907288,407.858124 756.477295,405.390594 
	C751.693420,397.135468 751.633667,397.175873 760.131226,392.709229 
	C764.698181,390.308624 769.314392,387.993530 773.801453,385.451019 
	C778.710999,382.668976 780.008606,378.749847 777.822266,374.145721 
	C775.624146,369.516876 771.099609,367.407104 766.269958,369.212982 
	C762.862915,370.486969 759.677979,372.355103 756.063110,374.128265 
z"/>
<path fill="#000000" opacity="1.000000" stroke="none" 
	d="
M597.935547,809.310181 
	C594.608704,809.284729 591.377686,809.655945 591.871460,805.175476 
	C592.261780,801.633301 591.817322,797.459412 597.593140,797.944763 
	C601.633484,798.284302 605.567078,797.433411 609.184448,795.496399 
	C610.712830,794.677856 612.123352,793.550354 611.541992,791.582214 
	C610.944092,789.557739 609.158630,789.564941 607.420410,789.760498 
	C602.796204,790.280701 598.182617,791.009338 593.543640,791.254639 
	C588.670715,791.512268 584.799255,789.442200 582.435486,785.028137 
	C579.893677,780.281616 580.433228,775.739502 583.526978,771.417419 
	C588.725830,764.154358 605.151794,758.309998 613.787109,760.387146 
	C617.647888,761.315674 617.240784,763.739441 616.710022,766.499451 
	C616.202148,769.140015 616.778198,772.388855 612.036804,771.521118 
	C607.189880,770.634094 602.416199,771.894165 597.915344,773.801086 
	C596.102356,774.569275 593.926514,775.661377 594.557007,778.108887 
	C595.181519,780.533386 597.587646,779.775940 599.259399,779.629211 
	C602.565491,779.339050 605.839111,778.687927 609.129578,778.209717 
	C615.813782,777.238098 621.394226,779.844238 623.855469,785.068176 
	C626.498352,790.677673 625.172974,796.779968 620.003113,801.261841 
	C613.838806,806.605957 606.366760,808.692078 597.935547,809.310181 
z"/>
<path fill="#000000" opacity="1.000000" stroke="none" 
	d="
M744.215698,669.756714 
	C754.578796,677.860046 764.569336,685.865906 774.777771,693.583618 
	C778.124023,696.113403 778.296082,698.103149 775.594727,701.170776 
	C769.214172,708.416382 771.382263,709.436035 762.875488,702.660767 
	C754.554077,696.033325 746.152588,689.506042 737.755615,682.974060 
	C736.471069,681.974854 735.297302,680.708984 732.931030,680.410767 
	C728.294006,686.271362 723.187256,692.164001 718.743530,698.520203 
	C715.204651,703.582031 713.046204,699.700867 710.403259,697.949707 
	C707.432739,695.981445 706.547119,694.158020 709.344299,690.836426 
	C716.299438,682.577148 722.961670,674.053223 729.380676,665.368774 
	C732.206665,661.545410 734.478394,661.504517 737.673889,664.600830 
	C739.573059,666.441101 741.831238,667.910828 744.215698,669.756714 
z"/>
<path fill="#000000" opacity="1.000000" stroke="none" 
	d="
M413.226685,757.692261 
	C419.499664,760.066284 425.372803,762.405273 431.321045,764.534485 
	C434.182037,765.558594 434.736725,767.082275 433.649658,769.856445 
	C427.583160,785.337830 421.560120,800.837158 415.691223,816.394104 
	C414.507202,819.532593 412.978119,819.909546 410.026489,818.838074 
	C400.666748,815.440186 400.683075,815.553833 404.259216,806.427612 
	C408.020538,796.828796 411.509064,787.119446 415.447449,777.595215 
	C417.153992,773.468323 416.595886,771.241943 412.136780,769.790283 
	C406.294189,767.888123 400.664795,765.339966 394.855042,763.325256 
	C391.037903,762.001526 391.112152,759.776917 392.571167,756.747986 
	C393.872711,754.046021 394.034424,750.139648 398.888123,752.205139 
	C403.475189,754.157104 408.195831,755.795044 413.226685,757.692261 
z"/>
<path fill="#000000" opacity="1.000000" stroke="none" 
	d="
M344.977112,262.975769 
	C344.173279,267.045105 339.555206,267.686218 337.479797,271.577576 
	C342.647278,278.451111 348.049500,285.548431 353.332947,292.733093 
	C354.503662,294.325134 357.232666,296.081146 355.161011,298.203186 
	C352.559113,300.868317 349.793488,303.881134 345.840393,304.433075 
	C344.192749,304.663147 343.326111,302.498596 342.337738,301.191193 
	C336.945618,294.058777 331.567322,286.915894 325.934723,279.445679 
	C321.204437,284.255859 318.554565,281.510406 316.014862,277.554749 
	C314.721069,275.539642 314.385406,273.993042 316.598663,272.518677 
	C318.806091,271.048157 318.192078,269.426727 317.155548,267.398804 
	C311.780304,256.882416 316.400818,246.191101 327.765259,242.363892 
	C330.080017,241.584351 332.251587,241.255920 332.852722,244.214706 
	C333.397949,246.898392 336.684937,249.835571 332.200165,252.373245 
	C326.504456,255.596130 326.289246,256.896759 330.260773,261.729523 
	C335.088226,258.063019 340.453033,253.278854 344.747620,262.814575 
	C345.002899,263.000946 344.977112,262.975769 344.977112,262.975769 
z"/>
<path fill="#000000" opacity="1.000000" stroke="none" 
	d="
M345.016602,263.012817 
	C344.396027,261.679565 343.914673,260.231934 343.095856,259.010498 
	C341.363892,256.426697 340.123138,254.183151 343.919678,252.160583 
	C346.570618,250.748291 345.007324,248.822479 343.993744,247.104568 
	C340.308014,240.857452 340.774139,242.293701 347.921295,237.448868 
	C352.039001,234.657608 354.239166,235.806671 355.881897,239.815750 
	C357.350006,243.398605 359.486969,243.647842 362.434418,241.501816 
	C363.893707,240.439316 365.405701,239.324341 367.363251,239.279083 
	C368.848877,239.953262 369.292542,241.497391 370.208282,242.649460 
	C372.875824,246.005295 372.634308,248.746521 368.440277,250.427963 
	C364.244354,252.110153 363.815063,254.409470 366.466888,257.972321 
	C368.442627,260.626801 369.878967,263.677429 371.629181,266.506104 
	C374.913055,271.813385 376.884674,272.088318 381.901550,268.054382 
	C382.409119,267.646240 382.974854,267.310364 383.457550,266.979370 
	C392.539062,271.442902 392.840942,274.278259 384.946991,279.837830 
	C375.211761,286.694183 366.684906,285.004120 360.480103,274.908081 
	C357.626709,270.265289 354.915649,265.535034 352.320129,261.148804 
	C349.414764,260.826477 348.045044,263.462006 345.337158,262.994995 
	C344.977112,262.975769 345.002899,263.000946 345.016602,263.012817 
z"/>
<path fill="#000000" opacity="1.000000" stroke="none" 
	d="
M230.763168,461.384308 
	C225.021103,460.073242 219.679810,458.861786 214.363068,457.550751 
	C211.947540,456.955109 207.908813,457.422913 208.298920,453.969269 
	C208.745911,450.011780 207.505066,444.479523 213.797775,443.142151 
	C213.062027,439.635162 211.501587,436.405548 212.071594,432.803009 
	C212.545502,429.807953 213.839554,428.235626 217.114258,429.172211 
	C218.709274,429.628418 220.360886,429.883423 221.979218,430.262238 
	C224.256210,430.795197 225.100388,431.852234 224.720566,434.520477 
	C223.605896,442.351166 226.155792,445.825104 233.943176,447.750458 
	C239.267029,449.066681 244.604523,450.360321 249.988586,451.388275 
	C253.244522,452.009888 253.880905,453.620239 253.359909,456.663452 
	C251.719894,466.242889 251.807144,466.257172 242.331238,464.043549 
	C238.612595,463.174835 234.893066,462.309906 230.763168,461.384308 
z"/>
<path fill="#000000" opacity="1.000000" stroke="none" 
	d="
M778.033447,510.495972 
	C778.301331,506.721191 780.486389,506.148590 783.294861,506.216339 
	C794.089050,506.476807 804.887573,506.593353 815.678284,506.949127 
	C818.276367,507.034790 821.630310,505.799561 823.027222,509.431274 
	C824.558411,513.411926 822.853638,519.473450 819.647034,521.738831 
	C821.308167,524.785522 822.537292,528.024902 823.101257,531.486084 
	C823.527527,534.102051 822.794250,535.730469 819.743835,535.502319 
	C817.922852,535.366089 816.089844,535.315430 814.263855,535.341431 
	C811.776978,535.376953 810.925964,534.245422 810.643494,531.753906 
	C809.734253,523.734863 807.393555,521.363770 799.370728,520.628662 
	C794.420410,520.175049 789.411011,520.352417 784.427673,520.278442 
	C777.968079,520.182617 777.804260,520.026672 777.901062,513.421875 
	C777.913269,512.591309 777.960754,511.761322 778.033447,510.495972 
z"/>
<path fill="#000000" opacity="1.000000" stroke="none" 
	d="
M506.630798,221.846512 
	C506.654999,216.869659 506.981567,212.350235 506.618225,207.886963 
	C506.193390,202.668472 508.374207,200.944290 513.270386,201.614731 
	C516.228943,202.019836 519.892578,200.398865 520.915894,204.883224 
	C522.899658,204.027496 524.394775,203.292923 525.950989,202.726242 
	C534.086731,199.763641 536.017578,201.351974 535.289062,210.012604 
	C535.062866,212.702423 533.968628,213.706314 531.328613,214.010559 
	C522.928223,214.978622 520.454163,217.827042 520.305969,226.245850 
	C520.212158,231.571732 520.150940,236.898376 520.109436,242.224945 
	C520.087097,245.099457 518.786682,246.533173 515.819031,246.369125 
	C513.992432,246.268143 512.154480,246.224686 510.328003,246.303482 
	C507.111816,246.442184 505.777466,244.891571 505.904022,241.778839 
	C506.167572,235.296387 506.389160,228.812225 506.630798,221.846512 
z"/>
<path fill="#000000" opacity="1.000000" stroke="none" 
	d="
M248.950775,623.885071 
	C254.435165,621.363831 259.628357,619.105469 264.686188,616.576355 
	C267.436707,615.200989 269.073975,615.782776 270.083801,618.582703 
	C270.139984,618.738586 270.221252,618.885986 270.296417,619.034424 
	C274.646820,627.627014 274.617249,627.560242 265.852783,631.447998 
	C256.573090,635.564270 247.291275,639.687622 238.145767,644.089172 
	C234.424454,645.880066 232.249084,645.376038 231.033493,641.346375 
	C230.651581,640.080444 230.098419,638.839172 229.446381,637.686890 
	C227.746170,634.682373 228.478317,632.871643 231.722946,631.538635 
	C237.416367,629.199829 242.983261,626.552917 248.950775,623.885071 
z"/>
<path fill="#000000" opacity="1.000000" stroke="none" 
	d="
M767.082886,334.125427 
	C768.897644,336.653839 767.787048,338.012634 765.917480,339.342407 
	C755.757202,346.569031 745.615662,353.822449 735.521973,361.141479 
	C733.440735,362.650665 732.177429,362.248749 730.550354,360.347595 
	C723.893677,352.569458 723.806885,352.550964 731.957275,346.654236 
	C739.770325,341.001465 747.632507,335.416199 755.503540,329.844147 
	C761.062744,325.908722 761.083984,325.941742 765.088074,331.416626 
	C765.677002,332.221832 766.286499,333.012054 767.082886,334.125427 
z"/>
<path fill="#000000" opacity="1.000000" stroke="none" 
	d="
M772.338257,564.563110 
	C774.711792,559.011780 777.891052,556.999695 782.316223,557.997009 
	C786.770630,559.000977 788.607605,562.194824 788.744202,566.379028 
	C788.879089,570.509888 785.499573,574.089233 781.448792,574.596863 
	C776.147217,575.261230 772.344177,571.277100 772.338257,564.563110 
z"/>
<path fill="#000000" opacity="1.000000" stroke="none" 
	d="
M268.994385,408.524811 
	C266.237488,414.165741 262.633453,416.193756 258.312592,414.655121 
	C254.244202,413.206390 252.082016,410.345734 252.567856,405.864075 
	C253.061096,401.313965 256.692413,398.005035 260.904694,398.213715 
	C265.906738,398.461517 268.969971,402.175140 268.994385,408.524811 
z"/>
<path fill="#000000" opacity="1.000000" stroke="none" 
	d="
M543.811462,789.341064 
	C540.208008,786.091797 539.072815,782.543762 541.283447,778.446350 
	C543.016785,775.233765 545.904358,773.712585 549.530151,774.096680 
	C553.405029,774.507141 555.778442,776.882019 556.861267,780.557190 
	C557.747437,783.564880 556.865417,786.151367 554.622498,788.208252 
	C551.481262,791.088989 547.945984,791.591675 543.811462,789.341064 
z"/>
<path fill="#000000" opacity="1.000000" stroke="none" 
	d="
M219.868164,653.262451 
	C217.538803,653.396667 215.770935,652.885376 214.420166,651.539368 
	C211.518738,648.648132 209.878906,645.284973 211.769470,641.210327 
	C213.260742,637.996338 216.051346,636.448120 219.498398,637.020142 
	C223.845932,637.741455 226.032883,640.875061 226.463669,645.041504 
	C226.926407,649.516724 224.723053,652.300537 219.868164,653.262451 
z"/>
<path fill="#000000" opacity="1.000000" stroke="none" 
	d="
M779.123474,331.446167 
	C776.996582,332.418030 775.233582,332.444580 773.464722,331.640930 
	C769.603333,329.886597 767.458862,326.958282 767.739380,322.651215 
	C767.987610,318.840637 770.260132,316.436249 773.955261,315.969879 
	C778.116455,315.444702 780.939575,317.812439 782.523499,321.444611 
	C784.274170,325.459167 783.419006,328.900391 779.123474,331.446167 
z"/>
</svg>